<svg width="30" height="30" viewBox="0 0 30 30" fill="none" xmlns="http://www.w3.org/2000/svg">
<path d="M7.01632 0.564331L7.01653 0.564273C7.91118 0.319859 8.84566 0.776328 9.20013 1.63257L9.20057 1.63363L11.5443 7.25863L11.5444 7.25883C11.8582 8.01094 11.6402 8.88123 11.0114 9.39072L11.0114 9.39072L11.0093 9.39248L8.12058 11.7597L7.81854 12.0072L7.98551 12.3602C9.98614 16.5898 13.4102 20.0138 17.6397 22.0144L17.9932 22.1816L18.2406 21.8789L20.6019 18.9902C20.602 18.9902 20.602 18.9902 20.602 18.9902C21.1184 18.3585 21.9843 18.1423 22.7352 18.4555L22.7354 18.4556L28.3604 20.7993L28.3615 20.7998C29.2177 21.1543 29.6742 22.0887 29.4298 22.9834L29.4297 22.9836L28.0235 28.1398L28.0232 28.141C27.8066 28.9426 27.0786 29.4999 26.25 29.4999C12.03 29.4999 0.5 17.9699 0.5 3.74992C0.5 2.92209 1.05683 2.19249 1.86081 1.97038C1.86103 1.97032 1.86126 1.97026 1.86148 1.97019L7.01632 0.564331ZM16.4062 0.499917C23.636 0.499917 29.5 6.36395 29.5 13.5937C29.5 14.0968 29.0969 14.4999 28.5938 14.4999C28.0906 14.4999 27.6875 14.0968 27.6875 13.5937C27.6875 7.3644 22.6355 2.31242 16.4062 2.31242C15.9031 2.31242 15.5 1.90932 15.5 1.40617C15.5 0.903013 15.9031 0.499917 16.4062 0.499917ZM16.875 11.7499C17.2397 11.7499 17.5894 11.8948 17.8473 12.1526C18.1051 12.4105 18.25 12.7602 18.25 13.1249C18.25 13.4896 18.1051 13.8393 17.8473 14.0972C17.5894 14.3551 17.2397 14.4999 16.875 14.4999C16.5103 14.4999 16.1606 14.3551 15.9027 14.0972C15.6449 13.8393 15.5 13.4896 15.5 13.1249C15.5 12.7602 15.6449 12.4105 15.9027 12.1526C16.1606 11.8948 16.5103 11.7499 16.875 11.7499ZM15.5 7.03117C15.5 6.52801 15.9031 6.12492 16.4062 6.12492C20.5305 6.12492 23.875 9.46942 23.875 13.5937C23.875 14.0968 23.4719 14.4999 22.9688 14.4999C22.4656 14.4999 22.0625 14.0968 22.0625 13.5937C22.0625 10.4699 19.53 7.93742 16.4062 7.93742C15.9031 7.93742 15.5 7.53432 15.5 7.03117Z" fill="#111111" stroke="black"/>
</svg>
